<svg xmlns="http://www.w3.org/2000/svg" xml:space="preserve" width="409.599" height="248.05" style="shape-rendering:geometricPrecision;text-rendering:geometricPrecision;image-rendering:optimizeQuality;fill-rule:evenodd;clip-rule:evenodd" viewBox="0 0 10451.89 6329.58"><defs><style>.fil0{fill:#fff}</style></defs><g id="Camada_x0020_1"><path d="M2441.26 2274.97c208.42-83.12 314.73-156.51 530.83-285.5 281.79-168.21 387.47-136.37 354.51-376.26-3.85-27.99-31.73-49.35-58.12-59.8-552.2-218.79-826.82 146.84-827.22 721.57zm6300.27 3.29c155.97-64.15 344.73-176.74 481.2-249.41 315.3-167.9 380.38-123.59 418.39-338.62 9.02-51.24-4.41-91.6-33.4-109.03-544.81-327.79-834.19 182.52-866.2 697.06zM781.02 3039.44C676.53 2591.87 1137.83 603.19 1231.29.19L497.98 0C374.05 913.63 127.36 1878.5 14.15 2781.65c-172.91 1379.51 1284.29 847.68 1906.96 470.96 455.91 361.59 589.62 427.74 1205.38 426.74 490.33-.78 1872.95 58.47 2295.06-13.99 452.43-77.68 984-646.71 608.46-1197.73-303.31-445.07-1982.43-954.56-216.45-952.6 274.01.3 465.05-5.93 742.26-5.93-109.29 570.39-423.15 1607.78-32.08 1997.85 518.66 517.36 1283.23-92.98 1743.02-240.8 673.44 439.49 861.85 518.14 2052.66 392.88l62.26-560.85c-490.98-5.63-1091.12 87.21-1435.91-184.98l1207.18-721.72c1326.74-1146.79-2194.96-2523.76-2159.13 491.72l-431.56 291.55c-493.07 271.06-471.79 30.82-472.86 30.25-99.24-357.87 123.72-1056.93 179.37-1487.15l776.03.85 111.03-612.74-758.8 3.71 114.63-616.93-738.91-6.24-123.02 617.83c-870.6 12.33-1974.61-182.69-2289.24 480.62-207.47 437.34-55.04 799.22 235.09 982.32 834.4 481.74 926.89 497.61 758.76 665.74-48.51 28.02-92.54 41.92-255.5 48.62-243.11 10.02-660.57 4-1024.68 4-322.56 0-732.48 8.91-993.71-14.56-335.1-30.12-478.81-99.4-445.06-157.86l334.1-237.24c280.54-155.25 711.79-349.29 911.76-544.93 874.74-855.83-787.89-1845.94-1785.74-866.7-398.71 391.3-388.13 855.61-425.98 1480.94-311.75 142.79-528.01 378.71-888.53 294.17z" class="fil0"/><rect width="10451.88" height="261.3" x=".01" y="4134.2" class="fil0" rx="161.43" ry="130.65"/><path d="M790.82 6329.58c-112.77 0-217.44-18.67-314-56.03-96.56-37.35-180.44-90.21-251.62-158.58-71.19-68.37-126.52-149.07-165.99-242.11C19.74 5779.82 0 5678.33 0 5568.38c0-109.96 19.73-211.45 59.21-304.49 39.46-93.03 95.15-173.73 167.04-242.1 71.9-68.37 155.77-121.23 251.62-158.59 95.86-37.35 200.88-56.03 315.06-56.03 121.23 0 231.89 20.79 331.98 62.38 100.08 41.59 184.66 103.26 253.73 185.02l-177.61 167.05c-53.57-57.8-113.48-101.15-179.73-130.04-66.26-28.89-138.15-43.35-215.68-43.35s-148.37 12.69-212.51 38.07c-64.13 25.37-119.82 61.32-167.04 107.83-47.23 46.52-83.88 101.5-109.96 164.94-26.08 63.43-39.12 133.21-39.12 209.33s13.04 145.9 39.12 209.33c26.08 63.44 62.73 118.41 109.96 164.93 47.22 46.52 102.91 82.47 167.04 107.84 64.14 25.37 134.98 38.06 212.51 38.06s149.42-14.45 215.68-43.34c66.25-28.89 126.16-72.95 179.73-132.16l177.61 169.16c-69.07 80.35-153.65 141.67-253.73 183.96-100.09 42.29-211.45 63.43-334.09 63.43zm1513.97 0c-115.6 0-222.02-19.03-319.29-57.08-97.27-38.07-181.84-91.27-253.74-159.64-71.89-68.37-127.58-148.73-167.04-241.05-39.47-92.33-59.21-193.48-59.21-303.43 0-109.96 19.73-211.1 59.21-303.43 39.46-92.33 95.15-172.68 167.04-241.05 71.9-68.37 156.47-121.59 253.74-159.64 97.26-38.06 202.98-57.09 317.17-57.09 115.59 0 221.67 19.04 318.22 57.09 96.56 38.06 180.79 91.27 252.68 159.64 71.89 68.37 127.58 148.72 167.04 241.05 39.47 92.33 59.21 193.48 59.21 303.43 0 109.96-19.73 211.44-59.21 304.48-39.46 93.04-95.15 173.39-167.04 241.05-71.89 67.66-156.12 120.53-252.68 158.59s-201.93 57.08-316.11 57.08zm-2.11-241.05c74.71 0 143.78-12.68 207.22-38.06 63.43-25.37 118.4-61.68 164.93-108.89 46.51-47.23 82.82-102.2 108.89-164.93 26.08-62.74 39.12-132.16 39.12-208.28s-13.04-145.55-39.12-208.28c-26.08-62.73-62.38-117.71-108.89-164.93-46.52-47.23-101.5-83.52-164.93-108.89-63.44-25.37-132.51-38.07-207.22-38.07-74.71 0-143.44 12.69-206.17 38.07-62.73 25.37-117.71 61.67-164.93 108.89-47.23 47.22-83.88 102.2-109.96 164.93-26.08 62.73-39.12 132.16-39.12 208.28 0 74.71 13.04 143.79 39.12 207.22 26.08 63.43 62.38 118.76 108.89 165.99 46.52 47.22 101.5 83.52 164.93 108.89 63.44 25.37 132.51 38.06 207.23 38.06zm1088.95 219.91V4828.3h226.25L4546.14 5968h-112.07V4828.3h272.77v1480.14h-226.25l-928.26-1139.71h112.07v1139.71h-272.77zm2012.99 0V5060.9h-490.56v-232.59h1256v232.59H5679.5v1247.54h-274.88zm689.32 0L6760 4828.3h270.66l668.17 1480.14h-287.57L6838.23 4974.2h109.96l-570.91 1334.24h-283.34zm306.59-342.55 74.01-215.68h799.27l74.01 215.68h-947.3zm2150.44 363.69c-112.77 0-217.44-18.67-314-56.03-96.56-37.35-180.44-90.21-251.62-158.58-71.19-68.37-126.52-149.07-165.99-242.11-39.47-93.04-59.21-194.53-59.21-304.48 0-109.96 19.73-211.45 59.21-304.49 39.46-93.03 95.15-173.73 167.04-242.1 71.9-68.37 155.77-121.23 251.62-158.59 95.86-37.35 200.88-56.03 315.06-56.03 121.23 0 231.89 20.79 331.98 62.38 100.08 41.59 184.66 103.26 253.73 185.02l-177.61 167.05c-53.57-57.8-113.48-101.15-179.73-130.04-66.26-28.89-138.15-43.35-215.68-43.35s-148.37 12.69-212.51 38.07c-64.13 25.37-119.82 61.32-167.04 107.83-47.23 46.52-83.88 101.5-109.96 164.94-26.08 63.43-39.12 133.21-39.12 209.33s13.04 145.9 39.12 209.33c26.08 63.44 62.73 118.41 109.96 164.93 47.22 46.52 102.91 82.47 167.04 107.84 64.14 25.37 134.98 38.06 212.51 38.06s149.42-14.45 215.68-43.34c66.25-28.89 126.16-72.95 179.73-132.16l177.61 169.16c-69.07 80.35-153.65 141.67-253.73 183.96-100.09 42.29-211.45 63.43-334.09 63.43zm1135.48-21.14V5060.9h-490.56v-232.59h1256v232.59h-490.56v1247.54h-274.88z" style="fill:#fff;fill-rule:nonzero"/></g></svg>